Coordinates
version=1
nRows=26
nColumns=24
inDegrees=yes

Units are S.I. units (second, meters, Newtons, ...)
If the header above contains a line with 'inDegrees', this indicates whether rotational values are in degrees (yes) or radians (no).

endheader
time	pelvis_tilt	pelvis_list	pelvis_rotation	pelvis_tx	pelvis_ty	pelvis_tz	hip_flexion_r	hip_adduction_r	hip_rotation_r	knee_angle_r	ankle_angle_r	subtalar_angle_r	mtp_angle_r	hip_flexion_l	hip_adduction_l	hip_rotation_l	knee_angle_l	ankle_angle_l	subtalar_angle_l	mtp_angle_l	lumbar_extension	lumbar_bending	lumbar_rotation
      1.49000000	      7.00260012	    -32.11241328	    -79.77774839	      0.55284976	      1.04222945	     -0.38620475	    -32.94595996	     -0.04115998	     -3.89495991	     -2.62239833	      9.67041457	     -9.52463059	      0.00000000	    -20.97327533	      1.33987851	     -1.71728665	    -63.63031014	     -1.38121790	    -25.11105617	      0.00000000	    -47.63794456	      0.46711004	     -8.53542910
      1.50000000	      7.52220404	    -31.83668206	    -79.75466974	      0.55145636	      1.04278467	     -0.38779116	    -33.53233009	     -0.44222539	     -3.76166499	     -2.13643794	      9.80085271	     -9.77949335	      0.00000000	    -19.48839176	      2.04118293	     -2.14318996	    -63.54381390	      0.87166309	    -23.77147345	      0.00000000	    -47.57974006	     -0.24361071	     -8.30696666
      1.51000000	      8.17087297	    -31.51997802	    -79.72491491	      0.55017010	      1.04329233	     -0.38941588	    -34.07903872	     -0.99893116	     -3.74970069	     -1.69034577	     10.05703021	     -9.87765187	      0.00000000	    -18.08417865	      2.91706747	     -2.55972270	    -63.04275721	      2.40354481	    -23.15905243	      0.00000000	    -47.50581987	     -1.08097664	     -8.15886149
      1.52000000	      8.72383238	    -31.26523159	    -79.71690630	      0.54884873	      1.04367196	     -0.39102719	    -34.67996136	     -1.44956668	     -3.78680269	     -1.23222074	     10.31091888	     -9.94130316	      0.00000000	    -16.80598069	      3.63956699	     -3.00583685	    -62.27414750	      4.06608893	    -22.29072330	      0.00000000	    -47.48435876	     -1.84488383	     -7.97819539
      1.53000000	      8.94076902	    -31.10091996	    -79.67826350	      0.54786967	      1.04385963	     -0.39275083	    -35.33479825	     -1.51046375	     -3.96305448	     -0.71825820	     10.47875145	     -9.96289547	      0.00000000	    -15.60901457	      3.99738593	     -3.35270732	    -61.29531146	      4.97983712	    -22.48346792	      0.00000000	    -47.50908806	     -2.18941848	     -7.65399854
      1.54000000	      9.65013813	    -30.86945124	    -79.76241883	      0.54643631	      1.04411558	     -0.39435161	    -35.93436869	     -2.18583128	     -3.88221510	     -0.36958135	     10.77024280	     -9.96656923	      0.00000000	    -14.61670147	      4.86996879	     -3.85727500	    -59.83135233	      6.87649606	    -21.00770337	      0.00000000	    -47.56546937	     -3.18964728	     -7.54205559
      1.55000000	     10.04179910	    -30.55982812	    -79.82704781	      0.54536221	      1.04402684	     -0.39599098	    -36.38997479	     -2.52944574	     -3.89519408	     -0.02292958	     11.03173247	    -10.02188946	      0.00000000	    -13.53340984	      5.45102529	     -4.22404568	    -58.14184378	      7.68795444	    -20.95143051	      0.00000000	    -47.49717410	     -3.84639757	     -7.38742760
      1.56000000	     10.53787216	    -30.36744739	    -79.84378795	      0.54432587	      1.04389560	     -0.39763522	    -37.00446251	     -2.93454213	     -3.87235227	      0.34028437	     11.36284713	    -10.16748643	      0.00000000	    -12.70297248	      6.07007023	     -4.58445067	    -56.13371816	      8.38330735	    -20.76307670	      0.00000000	    -47.57267822	     -4.54119032	     -7.20994038
      1.57000000	     10.95686292	    -30.16978716	    -79.88497314	      0.54341849	      1.04363516	     -0.39921218	    -37.58532519	     -3.27925125	     -3.80848803	      0.66391160	     11.63626342	    -10.35390789	      0.00000000	    -11.98358425	      6.63444051	     -4.84331391	    -53.81163821	      8.86050545	    -20.71093042	      0.00000000	    -47.63079456	     -5.17964687	     -7.05033885
      1.58000000	     11.42287949	    -30.09453131	    -79.89048861	      0.54255770	      1.04334887	     -0.40076039	    -38.32206593	     -3.62881487	     -3.64415901	      1.00023290	     11.83006205	    -10.74013848	      0.00000000	    -11.54433680	      7.21212466	     -5.01592321	    -51.13966914	      8.99662130	    -20.82372217	      0.00000000	    -47.83019771	     -5.81972623	     -6.94784719
      1.59000000	     11.70213164	    -29.77973615	    -79.97846413	      0.54187234	      1.04262214	     -0.40222667	    -38.71719680	     -3.87973303	     -3.54877886	      1.24393658	     12.13721326	    -11.00767236	      0.00000000	    -10.90296073	      7.67534118	     -5.08915782	    -48.29071324	      9.13281519	    -20.79053852	      0.00000000	    -47.74244622	     -6.34104690	     -6.75001959
      1.60000000	     12.17572814	    -29.70250016	    -79.89847073	      0.54126451	      1.04203535	     -0.40366455	    -39.50805472	     -4.18408760	     -3.13590494	      1.64512683	     12.09418426	    -11.97827751	      0.00000000	    -10.72450071	      8.25665632	     -4.98987113	    -45.02504713	      8.51465053	    -21.24741874	      0.00000000	    -47.95351901	     -6.93439241	     -6.71274365
      1.61000000	     12.44089988	    -29.54883069	    -80.00274721	      0.54067393	      1.04117481	     -0.40497028	    -40.07198207	     -4.41574835	     -2.89221228	      1.84535845	     12.39374967	    -12.31496353	      0.00000000	    -10.55119676	      8.64596657	     -4.97043250	    -41.55738962	      8.25238783	    -21.12790915	      0.00000000	    -48.02198097	     -7.43483505	     -6.51180112
      1.62000000	     12.44570371	    -29.19455226	    -80.04888428	      0.54038818	      1.03989943	     -0.40626618	    -40.34248115	     -4.36781410	     -2.82602020	      1.96269393	     12.71630433	    -12.50034291	      0.00000000	    -10.17759243	      8.78950865	     -4.74302272	    -38.02806612	      8.07271078	    -20.78721073	      0.00000000	    -47.84904197	     -7.64691221	     -6.28512613
      1.63000000	     12.75444502	    -29.02335793	    -80.20501229	      0.53990137	      1.03873032	     -0.40721273	    -40.93432749	     -4.69388971	     -2.61369560	      2.20361255	     13.13993746	    -12.73066467	      0.00000000	    -10.29542609	      9.23428249	     -4.61883546	    -33.99087692	      7.48541821	    -20.66355218	      0.00000000	    -47.86349163	     -8.22963547	     -6.12716081
      1.64000000	     12.85518581	    -28.92193122	    -80.28692546	      0.53978221	      1.03748053	     -0.40818668	    -41.56900738	     -4.75133731	     -2.50764381	      2.44777696	     13.39908730	    -12.94908948	      0.00000000	    -10.57151248	      9.48565291	     -4.11616536	    -29.79004577	      6.80124854	    -20.68970370	      0.00000000	    -47.90053129	     -8.52522433	     -5.92834695
      1.65000000	     12.84033051	    -28.73405657	    -80.42379272	      0.53973958	      1.03597928	     -0.40902071	    -42.08577077	     -4.74398225	     -2.39674291	      2.67780900	     13.70112021	    -13.08367778	      0.00000000	    -10.85128739	      9.63039013	     -3.50217715	    -25.42645868	      6.17553861	    -20.60777425	      0.00000000	    -47.81712742	     -8.73782192	     -5.69190972
      1.66000000	     12.55962113	    -28.37169477	    -80.58864485	      0.53992507	      1.03413874	     -0.40973594	    -42.34946004	     -4.50890767	     -2.30726023	      2.85791002	     14.00787216	    -13.14626999	      0.00000000	    -10.94490285	      9.51092876	     -2.76773904	    -21.08835298	      5.98912081	    -20.06779889	      0.00000000	    -47.48648919	     -8.71485972	     -5.36951813
      1.67000000	     12.42034409	    -28.34230500	    -80.88681905	      0.54000252	      1.03249945	     -0.41010632	    -43.03799692	     -4.48365468	     -2.07024536	      3.10241571	     14.37398936	    -13.06083657	      0.00000000	    -11.65043861	      9.51833413	     -1.87416462	    -16.34413116	      5.27957433	    -20.17712489	      0.00000000	    -47.44641044	     -8.87423573	     -4.95011285
      1.68000000	     12.13039216	    -28.12378117	    -81.02636398	      0.54069447	      1.03050660	     -0.41034009	    -43.53268455	     -4.23729033	     -2.16248501	      3.36393382	     14.67894990	    -12.85675983	      0.00000000	    -12.35101415	      9.43875762	      0.49894458	    -11.32502063	      3.16766368	    -22.50132020	      0.00000000	    -47.17710699	     -8.76290236	     -4.67397826
      1.69000000	     11.54517416	    -27.78635900	    -81.32874605	      0.54100262	      1.02818341	     -0.41039058	    -43.82403496	     -3.78748176	     -1.99877621	      3.60201341	     14.94251829	    -12.81342214	      0.00000000	    -12.64151707	      8.86556674	      1.55428501	     -7.00869312	      3.03699007	    -21.84637262	      0.00000000	    -46.71250347	     -8.53255714	     -4.22668869
      1.70000000	     10.81915094	    -27.68728336	    -81.67294684	      0.54172252	      1.02584755	     -0.41015841	    -44.34855430	     -3.23307842	     -1.83440320	      3.77095297	     15.30591787	    -12.34571316	      0.00000000	    -13.63550031	      8.12356284	      5.16716775	     -1.97839814	     -0.49400531	    -26.63477478	      0.00000000	    -46.38578510	     -8.08290850	     -3.60813566
      1.71000000	      9.97590336	    -27.43981298	    -82.02798700	      0.54209320	      1.02341847	     -0.40999058	    -44.67434685	     -2.55933504	     -1.54728371	      3.91572634	     15.49211747	    -12.18520267	      0.00000000	    -13.91406960	      7.11547303	      6.23239890	      1.73649650	     -0.65425781	    -26.30233967	      0.00000000	    -45.93284169	     -7.60305626	     -3.00623035
      1.72000000	      9.16140316	    -27.11188209	    -82.33906361	      0.54267876	      1.02084973	     -0.40961213	    -44.91066464	     -1.91471568	     -1.46155441	      3.97748117	     15.82994905	    -11.71796690	      0.00000000	    -14.21747819	      6.06074965	      8.49260574	      5.41050323	     -2.82679652	    -28.97386210	      0.00000000	    -45.39403918	     -7.11777765	     -2.45027342
      1.73000000	      8.52320437	    -26.84410100	    -82.60093214	      0.54324293	      1.01857403	     -0.40930219	    -45.25258546	     -1.42387992	     -1.26205619	      4.06117269	     15.92323932	    -11.55158157	      0.00000000	    -14.27180161	      5.25472085	      8.97433974	      8.11456783	     -2.81454234	    -28.38096802	      0.00000000	    -44.98517164	     -6.78100837	     -2.00206612
      1.74000000	      8.15315053	    -26.54863496	    -82.75317426	      0.54397701	      1.01643326	     -0.40882868	    -45.61363485	     -1.15394914	     -1.16390380	      4.11875368	     15.99647501	    -11.43262489	      0.00000000	    -14.24316442	      4.76784105	      9.29358835	     10.29148479	     -2.88314107	    -27.81544958	      0.00000000	    -44.58332719	     -6.66009726	     -1.69658452
